Coordinates
version=1
nRows=14
nColumns=33
inDegrees=yes

Units are S.I. units (second, meters, Newtons, ...)
Angles are in degrees.

endheader
time	ground_thorax_rot_x	ground_thorax_rot_y	ground_thorax_rot_z	ground_thorax_tx	ground_thorax_ty	ground_thorax_tz	clav_prot_r	clav_elev_r	scapula_abduction_r	scapula_elevation_r	scapula_upward_rot_r	scapula_winging_r	shoulder_elv_r	plane_of_elev_r	axial_rot_r	elbow_flexion_r	pro_sup_r	wrist_flex_r	wrist_dev_r	clav_prot_l	clav_elev_l	scapula_abduction_l	scapula_elevation_l	scapula_upward_rot_l	scapula_winging_l	shoulder_elv_l	plane_of_elev_l	axial_rot_l	elbow_flexion_l	pro_sup_l	wrist_flex_l	wrist_dev_l
      0.88000000	      3.27940556	     -7.89614701	      9.91271719	     -0.11571901	      1.02934821	      0.01239874	      3.27655004	     -8.73827011	      4.31678762	     -0.51145052	     -3.04889118	      0.75396659	     37.36504647	      5.67577475	     15.98121742	     61.35409904	     42.45647870	      8.91693594	     18.64044600	      2.13906077	    -13.88877731	      0.93769941	     -0.21056626	    -18.50416973	     -6.03513484	     50.65943503	      3.49084256	     -6.60723047	     64.85276755	     41.88170369	     15.84533755	     -6.32579921
      0.89000000	      3.34135762	     -7.81485163	      9.90322935	     -0.11547863	      1.02943891	      0.01248679	      3.33268979	     -8.75139813	      4.46311247	     -0.56878347	     -2.94575279	      0.70030541	     37.40404079	      5.85843081	     15.95670350	     60.96032160	     42.42959887	      8.79499645	     18.63190731	      2.22194521	    -14.02588860	      0.77698169	     -0.04068919	    -18.42357925	     -6.03344458	     50.69815885	      3.58303653	     -6.70845685	     64.55257911	     41.95189781	     15.81025768	     -6.44819559
      0.90000000	      3.38689481	     -7.76066507	      9.82945180	     -0.11512431	      1.02960145	      0.01247950	      3.39303695	     -8.80126195	      4.62073690	     -0.66222007	     -2.83741870	      0.65593726	     37.42087752	      6.08118339	     15.84649616	     60.53549282	     42.38040075	      8.67272367	     18.61746678	      2.29635266	    -14.15761966	      0.62936492	      0.12477273	    -18.34114821	     -6.02967227	     50.70031848	      3.75756189	     -6.70806187	     64.23140052	     41.98346045	     15.76920324	     -6.54528244
      0.91000000	      3.43361211	     -7.70779677	      9.76712105	     -0.11476062	      1.02972055	      0.01247746	      3.46550163	     -8.86715836	      4.80404429	     -0.77169781	     -2.72622263	      0.60984708	     37.44435817	      6.30382080	     15.72199432	     60.07109521	     42.32617679	      8.56515653	     18.61188182	      2.37575076	    -14.26330691	      0.47158740	      0.26980579	    -18.24691037	     -6.01502192	     50.68496778	      3.97919406	     -6.70977132	     63.89230835	     41.97370885	     15.74791281	     -6.62018916
      0.92000000	      3.48242494	     -7.65853468	      9.71025515	     -0.11440797	      1.02982882	      0.01247700	      3.54583471	     -8.95192029	      5.00518168	     -0.90234953	     -2.60652161	      0.56328909	     37.47231893	      6.53557582	     15.57164420	     59.55474127	     42.26982653	      8.46665458	     18.61574990	      2.45672091	    -14.35849990	      0.30873922	      0.40765277	    -18.14573906	     -5.99304882	     50.64679891	      4.24273613	     -6.70093311	     63.51096171	     41.92281130	     15.75181690	     -6.67355575
      0.93000000	      3.44855108	     -7.58357343	      9.59781261	     -0.11405977	      1.02991553	      0.01246693	      3.67038305	     -9.01008436	      5.28806586	     -1.01050523	     -2.47887596	      0.47937409	     37.45982440	      6.83143669	     15.38213039	     58.97937361	     42.15087840	      8.37848308	     18.62115324	      2.54444430	    -14.41529543	      0.11969850	      0.53726409	    -17.98010214	     -5.94789304	     50.59159523	      4.61114716	     -6.59672943	     63.02443751	     41.76154499	     15.77385468	     -6.74200677
      0.94000000	      3.49420969	     -7.53422927	      9.57623252	     -0.11376463	      1.03005271	      0.01238299	      3.77944570	     -9.10804718	      5.54178613	     -1.15584011	     -2.35254032	      0.42136698	     37.49196242	      7.07455321	     15.20522273	     58.34760334	     42.08040645	      8.29896004	     18.64938608	      2.64100095	    -14.49240194	     -0.07276155	      0.66329300	    -17.86387508	     -5.90698419	     50.50126598	      4.94952368	     -6.57728951	     62.55585454	     41.59656950	     15.83742700	     -6.77463057
      0.95000000	      3.43983669	     -7.51332442	      9.54974364	     -0.11364096	      1.02932381	      0.01225447	      4.29984360	     -8.75075182	      6.45085139	     -0.84880560	     -2.27158954	     -0.00601156	     37.32106166	      7.61317573	     14.48609177	     57.55696678	     41.26147760	      8.39706371	     18.62799508	      2.94457020	    -13.95103053	     -0.68191392	      0.28740314	    -17.49581843	     -5.47781928	     49.94558846	      5.85955366	     -6.19205571	     61.79454998	     39.97723862	     16.08713284	     -7.16317616
      0.96000000	      3.50765724	     -7.44113875	      9.54584004	     -0.11336361	      1.02965936	      0.01224462	      4.37685375	     -8.95127389	      6.65536002	     -1.08444273	     -2.15755554	     -0.01537870	     37.44926878	      7.80238107	     14.38062306	     56.93989793	     41.29971938	      8.31412758	     18.67200111	      3.01851899	    -14.15885884	     -0.83531149	      0.53886077	    -17.38881655	     -5.50016593	     49.91516565	      6.08583479	     -6.21666197	     61.31766210	     39.90136103	     16.13727300	     -7.09410006
      0.97000000	      3.46024492	     -7.44485201	      9.46046072	     -0.11327558	      1.02947529	      0.01220660	      4.81959676	     -8.92602126	      7.43305634	     -1.06242401	     -2.13931338	     -0.28633917	     37.56571812	      8.27211211	     13.89046512	     56.15339677	     40.84085527	      8.40283408	     18.84785654	      3.23740804	    -13.95567304	     -1.29558127	      0.49481121	    -17.03452913	     -5.25126420	     49.60811326	      6.65753720	     -5.91114009	     60.64828795	     38.17182823	     16.42642692	     -6.99505502
      0.98000000	      3.54601061	     -7.35491361	      9.48173372	     -0.11298579	      1.02985316	      0.01221919	      4.88738723	     -9.11981517	      7.62735025	     -1.29889759	     -2.00815649	     -0.29399361	     37.69235403	      8.47032443	     13.77804514	     55.50015140	     40.89242097	      8.30246420	     18.90662367	      3.31214548	    -14.16902354	     -1.44824028	      0.74522293	    -16.93997576	     -5.27817372	     49.57277713	      6.91893206	     -5.97286537	     60.16518891	     38.10373678	     16.48056226	     -6.90658262
      0.99000000	      3.51446657	     -7.33069343	      9.17970758	     -0.11260249	      1.02997855	      0.01217121	      5.07444643	     -9.21480057	      8.06978016	     -1.48923484	     -1.76663925	     -0.43023026	     37.77391944	      8.97783897	     13.47891485	     54.71919611	     40.73989566	      8.25027550	     19.09496778	      3.41062807	    -14.18802505	     -1.68090837	      0.88223587	    -16.67693809	     -5.19384228	     49.48860362	      7.55914975	     -5.74253221	     59.62128112	     37.29206568	     16.64788016	     -6.75519329
      1.00000000	      3.52810578	     -7.28715279	      9.12797389	     -0.11244976	      1.03000440	      0.01215722	      5.34271181	     -9.20120919	      8.60985686	     -1.54391476	     -1.60156758	     -0.63372576	     37.78919836	      9.43682793	     13.08613296	     53.85344240	     40.47490839	      8.23885292	     19.36853901	      3.55816135	    -14.10721769	     -1.99049948	      0.90132736	    -16.45149564	     -5.04605287	     49.28577442	      8.18148362	     -5.64393322	     58.93636751	     36.05691505	     16.90909442	     -6.57022674
      1.01000000	      3.54704212	     -7.24814466	      9.12949103	     -0.11228135	      1.03010444	      0.01211515	      5.62778319	     -9.19307735	      9.16449720	     -1.58943184	     -1.46892049	     -0.83942024	     37.82938683	      9.84953535	     12.69272570	     53.02492072	     40.24105250	      8.23371159	     19.63912435	      3.69059950	    -14.07141714	     -2.27023127	      0.95442334	    -16.24940172	     -4.92499183	     49.11062564	      8.70408646	     -5.61729884	     58.31960189	     34.77417081	     17.07587851	     -6.33997097
